<?xml version="1.0" encoding="utf-8"?>
<!-- Generator: Adobe Illustrator 28.2.0, SVG Export Plug-In . SVG Version: 6.00 Build 0)  -->
<svg version="1.1" id="Ebene_1" xmlns="http://www.w3.org/2000/svg" xmlns:xlink="http://www.w3.org/1999/xlink" x="0px" y="0px"
	 viewBox="0 0 108.3 123.1" style="enable-background:new 0 0 108.3 123.1;" xml:space="preserve">
<style type="text/css">
	.st0{display:none;}
	.st1{display:inline;fill:#FFFFFF;}
	.st2{display:inline;fill:#EBEBEB;}
	.st3{display:inline;}
	.st4{fill:#EBEBEB;}
	.st5{fill:#1572B6;}
	.st6{fill:#33A9DC;}
</style>
<g class="st0">
	<path class="st1" d="M18.9,14.7H23l0.3-3.2h-4.4V8.4h0h7.7l-0.1,0.8l-0.8,8.5h-6.9V14.7z"/>
	<path class="st2" d="M19,22.7L19,22.7l-3.5-0.9l-0.2-2.5h-1.7h-1.4l0.4,4.9l6.3,1.8l0,0L19,22.7z"/>
	<path class="st1" d="M22.8,17.6l-0.4,4.1l-3.4,0.9v3.2l6.3-1.8l0-0.5l0.5-6H22.8z"/>
	<g class="st3">
		<path class="st4" d="M18.9,8.4v1.9v1.2v0h-7.5h0l-0.1-0.7l-0.1-1.6l-0.1-0.8L18.9,8.4z"/>
		<path class="st4" d="M18.9,14.7v1.9v1.2v0h-3.4h0l-0.1-0.7l-0.1-1.6l-0.1-0.8H18.9z"/>
	</g>
</g>
<g>
	<path class="st5" d="M0,0l9.9,110.6l44.3,12.3l44.4-12.3L108.3,0H0z M90,103.5l-35.9,9.9v-15l-27.8-7.7l-1.9-21.3h6.3h7.3l1,10.8
		l15.1,4.1V62.7H39.3h0L39,59.6l-0.6-6.9L38,49.1h16.1V35.2H21.5h0l-0.3-3.1l-0.6-6.9l-0.3-3.6h33.9V9h44.3L90,103.5z"/>
	<g>
		<polygon class="st6" points="54.2,49.1 72.1,49.1 73.4,35.2 54.2,35.2 54.2,35.2 		"/>
		<polygon class="st6" points="54.2,9 54.2,21.7 54.2,21.7 88.2,21.7 87.9,25.3 84.5,62.7 84.5,62.7 82.2,88.5 82,90.8 54.3,98.4 
			54.3,98.5 54.2,98.5 54.2,98.5 54.2,113.5 90,103.5 98.5,9 		"/>
		<polygon class="st6" points="70.9,62.7 54.2,62.7 54.2,84.4 54.2,84.4 54.2,84.4 54.2,84.3 69.3,80.3 		"/>
	</g>
</g>
</svg>
