<?xml version="1.0" encoding="utf-8"?>
<!-- Generator: Adobe Illustrator 28.2.0, SVG Export Plug-In . SVG Version: 6.00 Build 0)  -->
<svg version="1.1" id="Ebene_1" xmlns="http://www.w3.org/2000/svg" xmlns:xlink="http://www.w3.org/1999/xlink" x="0px" y="0px"
	 viewBox="0 0 64 64" style="enable-background:new 0 0 64 64;" xml:space="preserve">
<style type="text/css">
	.st0{fill-rule:evenodd;clip-rule:evenodd;fill:#020203;}
</style>
<path class="st0" d="M45,2H19C9.6,2,2,9.6,2,19v26C2,54.4,9.6,62,19,62h26C54.4,62,62,54.4,62,45V19C62,9.6,54.4,2,45,2z M38.2,51.1
	c-1,0.2-1.3-0.4-1.3-0.9c0-0.7,0-2.8,0-5.4c0-1.9-0.6-3-1.3-3.6c4.4-0.5,8.9-2.1,8.9-9.7c0-2.1-0.7-3.9-2-5.3
	c0.2-0.5,0.9-2.5-0.2-5.2c0,0-1.6-0.5-5.4,2c-1.6-0.4-3.2-0.7-4.9-0.7c-1.6,0-3.3,0.2-4.9,0.7c-3.7-2.5-5.4-2-5.4-2
	c-1.1,2.7-0.4,4.7-0.2,5.2c-1.2,1.4-2,3.1-2,5.3c0,7.6,4.6,9.2,8.9,9.7c-0.5,0.5-1.1,1.4-1.2,2.6c-1.1,0.5-3.9,1.4-5.7-1.6
	c0,0-1-1.9-3-2c0,0-1.9,0-0.1,1.2c0,0,1.3,0.6,2.2,2.9c0,0,1.1,3.5,6.6,2.3c0,1.6,0,3.2,0,3.6c0,0.5-0.4,1.1-1.3,0.9
	c-7.8-2.6-13.3-10-13.3-18.6c0-10.9,8.7-19.7,19.5-19.7c10.8,0,19.5,8.8,19.5,19.7C51.5,41.2,45.9,48.5,38.2,51.1z"/>
</svg>
