<?xml version="1.0" encoding="utf-8"?>
<!-- Generator: Adobe Illustrator 28.2.0, SVG Export Plug-In . SVG Version: 6.00 Build 0)  -->
<svg version="1.1" id="Layer_1" xmlns="http://www.w3.org/2000/svg" xmlns:xlink="http://www.w3.org/1999/xlink" x="0px" y="0px"
	 viewBox="0 0 108.3 122.9" style="enable-background:new 0 0 108.3 122.9;" xml:space="preserve">
<style type="text/css">
	.st0{fill-rule:evenodd;clip-rule:evenodd;fill:#E44D26;}
	.st1{fill-rule:evenodd;clip-rule:evenodd;fill:#F16529;}
</style>
<g>
	<path class="st0" d="M0,0l9.9,110.6l44.3,12.3l44.4-12.3L108.3,0H0z M90,103.5l-35.9,9.9V99.4l0,0l-27.8-7.7l-1.9-21.3H38l1,10.8
		l15.1,4.1l0,0V36.2H35l1.2,13.9h17.9v13.6H23.8l-3.3-37.4l-0.3-3.6h34V9h44.3L90,103.5z"/>
	<g>
		<polygon class="st1" points="54.2,9 54.2,22.6 88.1,22.6 87.8,26.2 87.2,33.1 86.9,36.2 54.2,36.2 54.2,50.1 85.7,50.1 85.3,53.7 
			82.1,89.4 81.9,91.7 54.2,99.4 54.2,113.5 90,103.5 98.5,9 		"/>
		<polygon class="st1" points="70.8,63.6 54.2,63.6 54.2,85.3 69.3,81.2 		"/>
	</g>
</g>
</svg>
