<?xml version="1.0" encoding="UTF-8"?>
<svg xmlns="http://www.w3.org/2000/svg" version="1.1" viewBox="0 0 139.6 139.6">
  <defs>
    <style>
      .cls-1 {
        fill: #e3131b;
      }
    </style>
  </defs>
  <!-- Generator: Adobe Illustrator 28.6.0, SVG Export Plug-In . SVG Version: 1.2.0 Build 709)  -->
  <g>
    <g id="Ebene_1">
      <g>
        <path class="cls-1" d="M125.5,80.9c-1.4-.3-1.8.5-2.1,1.5l-.7,3,3.3.7.7-3c0-.1.1-.3.1-.5,0-.9-.5-1.6-1.4-1.7Z"/>
        <path class="cls-1" d="M124.9,91.1c0,0-.2-.1-.3-.2-1.7-.9-3.9-.3-4.8,1.5v-.2c-1,2.1.5,3.8,2.4,4.7.1,0,.2.1.3.2,1.7.9,3.9.2,4.7-1.5.9-1.9-.5-3.6-2.4-4.5Z"/>
        <path class="cls-1" d="M105.9,111.9l-1.4,1.3,5.3,5.6,1.3-1.2c2.2-2.1,1.4-3.7,0-5.3-1.4-1.6-3-2.4-5.2-.4Z"/>
        <path class="cls-1" d="M69.8,0C31.2,0,0,31.2,0,69.8s31.2,69.8,69.8,69.8,69.8-31.2,69.8-69.8S108.3,0,69.8,0ZM124.1,64.1c.3,2.3,2.4,3,4.5,2.8,2.1-.3,3.9-1.5,3.7-3.7,0,0,0,0,0,0-.2-1.5-1.6-2.6-3.1-2.4l-.2-1.8s0,0,0,0c2.5-.2,4.6,1.6,4.9,4,.3,3-1.8,5.7-4.8,6.1-3.1.5-6-1.7-6.5-4.8-.4-2.2,1-4.4,3.1-5h0s.2,1.8.2,1.8c-1.3.4-2.1,1.6-1.8,2.9ZM130.7,49.4l-4.7,1.3,1.3,4.7,4.7-1.3.5,1.8-10.4,3-.5-1.8,4.1-1.2-1.3-4.7-4.1,1.2-.5-1.8,10.4-2.9.5,1.8ZM117.8,41.1l1.2,3.2,8.5-3.4.7,1.7-8.5,3.4,1.3,3.1-1.6.7-3.2-8.1,1.5-.6ZM31.5,81.6l23.9-20.9L31.3,14.1l40.6,32.7L108.5,14.1l-20.3,46.2,18.9,16.1-21.1,1.6-.2,21.8-13.1-13.8-43,38.3,22.4-44.1-20.7,1.4ZM64.9,124.1h0s-1.1,7.2-1.1,7.2c-.3,1.8-1,3.6-4.1,3.1-.2,0-.4,0-.6-.1-1.6-.5-2.5-2.2-2-3.8v-.6l1.9.3v.6c-.2,1.2,0,2,1.2,2.1s1.8-.5,1.8-1.8l1.2-7.3,1.8.3h0s0,0,0,0ZM75.1,131c0,2.5-2,4.5-4.5,4.5s-4.5-2-4.5-4.5h0s0-6.9,0-6.9h1.9v6.3c0,1.5,0,3.1,2.5,3.1s2.5-1.7,2.5-3.1v-6.3h1.9v6.9ZM86.2,132.6l-.6-1.2c-.5,1.2-1.5,2.1-2.7,2.4-2.8.6-5.6-1-6.6-3.7-1-3,.5-6.2,3.5-7.2,2.1-.7,4.5.3,5.4,2.3l-1.8.5c-.6-1.2-2-1.8-3.3-1.3-2.1.6-2.8,2.8-2.1,4.8.7,2,2.2,3.7,4.5,3.1.2,0,.4,0,.6-.2,1.4-.6,2.1-2.1,1.5-3.5l-2.8.9-.4-1.4,4.3-1.2h0c0-.1.2,0,.2,0h-.2c0,0,1.5,5.4,1.5,5.4l-1.2.4ZM89.8,131.5l-4.1-10,7.2-2.9.6,1.6-5.5,2.2,1.1,2.6,5.1-2.1.5,1.4-5,2.1,1.2,2.9,5.5-2.2.6,1.5-7.3,2.9ZM105.1,124l-8.3-4.3h0l4.1,6.8-1.6.9-5.6-9.2,1.7-1,8.3,4.3h0l-4.1-6.8,1.5-.9,5.6,9.3-1.7,1ZM112.7,118.1l-3.3,3h0l-7.4-7.9,3.3-3c2-1.4,4.7-1.3,6.6.2,2.3,1.9,2.6,5.3.7,7.7ZM121.4,108.8l-9-6,4.2-6.2,1.3.9-3.1,4.6,2.4,1.6,2.7-4,1.2.8-2.7,4.1,4,2.7-1.1,1.6ZM128.3,97.4c-1.5,2.7-5,3.7-7.7,2.2-2.7-1.5-3.7-5-2.2-7.7,0-.1,0-.2.2-.3,1.4-2.5,4.5-3.5,7.1-2.1.2,0,.3.2.5.2,2.7,1.5,3.7,5,2.2,7.7ZM132.8,82.3c-.5.1-1.1.1-1.6,0-1.9-.4-2.9-.3-3.3,1.4l-.6,2.7,4.5,1-.4,1.9h0s-10.5-2.4-10.5-2.4l1.2-5c.5-2.3,1.9-3.2,3.7-2.8,1.2.2,2.1,1.2,2.2,2.4.2-.7.9-1.5,2.6-1.1.9.3,2,.3,2.9,0l-.4,2ZM130.1,78.6h0v-2c1.7.1,2.3-.9,2.5-2.6.1-1.7-.7-2.4-1.5-2.4-.6,0-1.2.2-1.4.8-.3.7-.6,1.7-1.1,3.2-.3,1.4-1.5,2.3-2.9,2.2-2.1,0-3.1-1.8-2.9-4.1.1-2.3,1.4-4,3.7-4v1.9c-1.4,0-2,1.3-2.1,2.2,0,.9.6,2,1.3,2.1s1.4-1,1.4-1.2,1-2.5,1-3.1c.4-1.2,1.6-2,2.9-2,2.4,0,3.3,1.8,3.2,4.5s-1.4,4.5-4.1,4.5Z"/>
      </g>
    </g>
  </g>
</svg>