<?xml version="1.0" encoding="utf-8"?>
<!-- Generator: Adobe Illustrator 28.2.0, SVG Export Plug-In . SVG Version: 6.00 Build 0)  -->
<svg version="1.1" id="Ebene_1" xmlns="http://www.w3.org/2000/svg" xmlns:xlink="http://www.w3.org/1999/xlink" x="0px" y="0px"
	 viewBox="0 0 64 64" style="enable-background:new 0 0 64 64;" xml:space="preserve">
<style type="text/css">
	.st0{fill-rule:evenodd;clip-rule:evenodd;fill:#00679A;}
</style>
<g>
	<path class="st0" d="M34.1,29.5L34.1,29.5C34.1,29.4,34,29.4,34.1,29.5L34.1,29.5z"/>
	<path class="st0" d="M45,2H19C9.6,2,2,9.6,2,19v26C2,54.4,9.6,62,19,62h26C54.4,62,62,54.4,62,45V19C62,9.6,54.4,2,45,2z
		 M22.6,48.4h-7.4V26.3h7.4V48.4z M18.9,23.2L18.9,23.2L18.9,23.2c-2.5,0-4.1-1.7-4.1-3.8c0-2.2,1.6-3.8,4.2-3.8
		c2.5,0,4.1,1.7,4.1,3.8C23.1,21.5,21.5,23.2,18.9,23.2z M49.2,48.4h-7.4V36.6c0-3-1.1-5-3.7-5c-2,0-3.3,1.4-3.8,2.7
		c-0.2,0.5-0.2,1.1-0.2,1.8v12.4h-7.4c0,0,0.1-20.1,0-22.2h7.4v3.1c1-1.5,2.7-3.7,6.6-3.7c4.9,0,8.5,3.2,8.5,10V48.4z"/>
</g>
</svg>
