<?xml version="1.0" encoding="utf-8"?>
<!-- Generator: Adobe Illustrator 28.2.0, SVG Export Plug-In . SVG Version: 6.00 Build 0)  -->
<svg version="1.1" id="Ebene_1" xmlns="http://www.w3.org/2000/svg" xmlns:xlink="http://www.w3.org/1999/xlink" x="0px" y="0px"
	 viewBox="0 0 123.1 123.1" style="enable-background:new 0 0 123.1 123.1;" xml:space="preserve">
<style type="text/css">
	.st0{fill:url(#SVGID_1_);}
	.st1{fill:url(#SVGID_00000103966800279102309880000016024654317833797526_);}
</style>
<linearGradient id="SVGID_1_" gradientUnits="userSpaceOnUse" x1="371.2553" y1="-240.6564" x2="480.3053" y2="-334.4565" gradientTransform="matrix(0.5625 0 0 -0.568 -206.0319 -128.4019)">
	<stop  offset="0" style="stop-color:#5CA0D5"/>
	<stop  offset="1" style="stop-color:#316A99"/>
</linearGradient>
<path class="st0" d="M60.4,5.1c-4.6,0-9,0.4-12.8,1.1c-11.3,2-13.4,6.2-13.4,13.9v10.2H61v3.4H34.2H24.2c-7.8,0-14.6,4.7-16.8,13.6
	C5,57.6,4.8,63.9,7.4,74.6c1.9,7.9,6.5,13.6,14.2,13.6h9.2V75.9c0-8.8,7.7-16.7,16.7-16.7h26.8c7.5,0,13.4-6.1,13.4-13.6V20.1
	c0-7.3-6.1-12.7-13.4-13.9C69.8,5.4,65,5.1,60.4,5.1L60.4,5.1z M45.9,13.3c2.8,0,5,2.3,5,5.1c0,2.8-2.3,5.1-5,5.1
	c-2.8,0-5-2.3-5-5.1C40.9,15.6,43.2,13.3,45.9,13.3z"/>
<linearGradient id="SVGID_00000046323055392046321850000002038479733799699113_" gradientUnits="userSpaceOnUse" x1="522.4891" y1="-391.2227" x2="483.489" y2="-336.1227" gradientTransform="matrix(0.5625 0 0 -0.568 -206.0319 -128.4019)">
	<stop  offset="0" style="stop-color:#FFD43E"/>
	<stop  offset="1" style="stop-color:#FFE975"/>
</linearGradient>
<path style="fill:url(#SVGID_00000046323055392046321850000002038479733799699113_);" d="M91.2,33.7v11.9c0,9.2-7.8,17-16.8,17H47.6
	c-7.3,0-13.4,6.3-13.4,13.6v25.5c0,7.3,6.3,11.5,13.4,13.6c8.5,2.5,16.6,2.9,26.8,0c6.8-2,13.4-5.9,13.4-13.6V91.6H61v-3.4h26.8
	h13.4c7.8,0,10.7-5.4,13.4-13.6c2.8-8.4,2.7-16.5,0-27.3c-1.9-7.8-5.6-13.6-13.4-13.6L91.2,33.7L91.2,33.7z M76.1,98.4
	c2.8,0,5,2.3,5,5.1c0,2.8-2.3,5.1-5,5.1c-2.8,0-5-2.3-5-5.1C71.1,100.7,73.3,98.4,76.1,98.4z"/>
</svg>
