<?xml version="1.0" encoding="utf-8"?>
<!-- Generator: Adobe Illustrator 28.2.0, SVG Export Plug-In . SVG Version: 6.00 Build 0)  -->
<svg version="1.1" id="Ebene_1" xmlns="http://www.w3.org/2000/svg" xmlns:xlink="http://www.w3.org/1999/xlink" x="0px" y="0px"
	 viewBox="0 0 64 64" style="enable-background:new 0 0 64 64;" xml:space="preserve">
<style type="text/css">
	.st0{fill-rule:evenodd;clip-rule:evenodd;fill:#FF0000;}
</style>
<g>
	<polygon class="st0" points="28,38.1 38.4,32 28,25.9 	"/>
	<path class="st0" d="M45,2H19C9.6,2,2,9.6,2,19v26c0,9.4,7.6,17,17,17h26c9.4,0,17-7.6,17-17V19C62,9.6,54.4,2,45,2z M51.3,41.7
		c-0.5,1.7-1.8,3.1-3.6,3.6C44.6,46.1,32,46.1,32,46.1s-12.6,0-15.8-0.8c-1.7-0.5-3.1-1.8-3.6-3.6c-0.8-3.1-0.8-9.7-0.8-9.7
		s0-6.6,0.8-9.7c0.5-1.7,1.8-3.1,3.6-3.6c3.1-0.8,15.8-0.8,15.8-0.8s12.6,0,15.8,0.8c1.7,0.5,3.1,1.8,3.6,3.6
		c0.8,3.1,0.8,9.7,0.8,9.7S52.2,38.6,51.3,41.7z"/>
</g>
</svg>
